<?xml version="1.0" encoding="UTF-8"?>
<svg id="Layer_1" xmlns="http://www.w3.org/2000/svg" version="1.1" viewBox="0 0 501.88 177.94">
  <!-- Generator: Adobe Illustrator 29.8.2, SVG Export Plug-In . SVG Version: 2.1.1 Build 3)  -->
  <defs>
    <style>
      .st0 {
        fill: #fff;
        fill-rule: evenodd;
      }

      .st1 {
        fill: #ff002a;
      }
    </style>
  </defs>
  <path class="st0" d="M267.96,105.71c-1.22,0-2.41-.63-3.07-1.77l-13.51-23.17-13.51,23.17c-.99,1.69-3.16,2.27-4.86,1.28-1.69-.99-2.27-3.16-1.28-4.87l16.58-28.43c.63-1.09,1.81-1.77,3.06-1.77s2.43.68,3.06,1.77l16.58,28.43c.99,1.69.42,3.87-1.28,4.87-.57.33-1.18.48-1.79.48h0ZM219.64,98.61h-21.32v-24.87c0-1.96-1.59-3.56-3.56-3.56s-3.56,1.59-3.56,3.56v28.43c0,.93.37,1.85,1.04,2.51.66.67,1.57,1.04,2.52,1.04h24.86c1.96,0,3.56-1.59,3.56-3.56s-1.59-3.56-3.56-3.56h.01ZM450.56,70.17c-1.96,0-3.56,1.59-3.56,3.56v20.32l-24.83-22.92c-1.04-.96-2.54-1.21-3.84-.64-1.3.57-2.13,1.84-2.13,3.26v28.43c0,1.96,1.59,3.56,3.56,3.56s3.56-1.59,3.56-3.56v-20.32l24.83,22.92c1.04.96,2.54,1.21,3.84.64,1.3-.57,2.13-1.84,2.13-3.26v-28.43c0-1.96-1.59-3.56-3.56-3.56ZM399.25,97.18c0,.2-.04.39-.11.56-.11.25-.29.47-.51.63-.12.07-.24.14-.36.18-.13.04-.27.07-.43.07h-20.85c-.2,0-.38-.04-.56-.11-.24-.11-.47-.29-.63-.51-.07-.12-.14-.24-.18-.36-.04-.13-.07-.27-.07-.43v-18.49c0-.2.04-.39.11-.56.11-.25.29-.47.51-.63.12-.07.24-.14.36-.18.13-.04.27-.07.43-.07h20.85c.2,0,.39.04.56.11.24.11.47.29.63.51.07.12.14.24.18.36.04.13.07.27.07.43v18.49ZM405.69,75.38c-.65-1.53-1.73-2.83-3.09-3.75-.68-.46-1.43-.82-2.24-1.07-.8-.25-1.66-.39-2.54-.39h-20.85c-1.17,0-2.3.24-3.32.68-1.53.65-2.83,1.73-3.75,3.09-.46.68-.82,1.44-1.07,2.24-.25.8-.39,1.66-.39,2.54v18.49c0,1.17.24,2.31.68,3.32.65,1.53,1.73,2.83,3.09,3.75.68.46,1.43.82,2.24,1.07.8.25,1.66.39,2.54.39h20.85c1.17,0,2.3-.24,3.32-.68,1.53-.65,2.83-1.73,3.75-3.09.46-.68.82-1.44,1.07-2.24.24-.8.38-1.66.38-2.54v-18.49c0-1.17-.24-2.3-.68-3.32ZM311.51,71.05c-1.48-1.3-3.72-1.15-5.01.33l-13.91,15.89-13.9-15.89c-1.3-1.48-3.53-1.63-5.01-.33-1.48,1.3-1.63,3.54-.33,5.02l15.7,17.95v8.15c0,1.96,1.59,3.56,3.56,3.56s3.56-1.59,3.56-3.56v-8.15l15.7-17.95c1.29-1.48,1.15-3.72-.33-5.02h-.02ZM355.35,85.85c-.68-.46-1.43-.82-2.24-1.07-.8-.25-1.66-.39-2.54-.39h-20.85c-.2,0-.39-.04-.56-.11-.24-.11-.47-.29-.63-.51-.07-.12-.14-.24-.18-.36-.04-.13-.07-.27-.07-.43v-4.26c0-.2.04-.39.11-.56.11-.25.29-.47.51-.63.12-.07.24-.14.36-.18.13-.04.27-.07.43-.07h24.63c1.96,0,3.56-1.59,3.56-3.56s-1.59-3.56-3.56-3.56h-24.63c-1.17,0-2.3.24-3.32.68-1.53.65-2.83,1.73-3.75,3.09-.46.68-.82,1.44-1.07,2.24-.25.8-.39,1.66-.39,2.54v4.27c0,1.17.24,2.31.68,3.32.65,1.53,1.72,2.83,3.09,3.75.68.46,1.43.82,2.24,1.07.8.25,1.66.39,2.54.39h20.85c.2,0,.39.04.56.11.24.11.47.29.63.51.07.12.14.24.18.36.04.13.06.27.06.43v4.27c0,.2-.04.39-.11.56-.11.25-.29.47-.51.63-.12.07-.24.14-.37.18-.13.04-.27.07-.43.07h-24.63c-1.96,0-3.56,1.59-3.56,3.56s1.59,3.56,3.56,3.56h24.63c1.17,0,2.3-.24,3.32-.68,1.53-.65,2.83-1.73,3.75-3.09.46-.68.83-1.44,1.07-2.24.25-.8.39-1.66.39-2.54v-4.27c0-1.17-.24-2.31-.68-3.32-.65-1.53-1.73-2.83-3.09-3.75ZM174.87,85.34c0,.2-.04.39-.11.56-.11.25-.29.47-.51.63-.12.07-.24.14-.37.18-.13.04-.27.07-.43.07h-19.9v-9.47h19.9c.2,0,.38.04.56.11.24.11.47.29.63.51.07.12.14.24.18.36.04.13.07.27.07.43v6.63h-.02ZM181.32,75.38c-.65-1.53-1.73-2.83-3.09-3.75-.68-.46-1.43-.82-2.24-1.07-.8-.25-1.66-.39-2.54-.39h-23.45c-.93,0-1.85.38-2.52,1.04-.66.67-1.04,1.57-1.04,2.52v28.43c0,1.96,1.59,3.56,3.56,3.56s3.56-1.59,3.56-3.56v-8.29h19.89c1.17,0,2.31-.24,3.32-.68,1.53-.65,2.83-1.73,3.75-3.09.46-.68.82-1.44,1.07-2.24.24-.8.38-1.66.38-2.54v-6.63c0-1.17-.24-2.31-.68-3.32h.01Z"/>
  <path class="st1" d="M51.79,123.92c-2.68,0-4.85-2.16-4.85-4.83v-60.78c0-1.67.87-3.23,2.3-4.11,1.43-.88,3.21-.96,4.72-.21l61.28,30.51c1.65.82,2.69,2.5,2.68,4.33,0,1.83-1.05,3.51-2.7,4.32l-40.98,20.2c-1.5.74-3.28.66-4.71-.23-1.42-.88-2.29-2.43-2.29-4.1v-20.32c0-2.67,2.17-4.83,4.85-4.83s4.85,2.16,4.85,4.83v12.54l25.24-12.44-45.54-22.67v52.97c0,2.67-2.17,4.83-4.85,4.83Z"/>
</svg>