<svg width="643" height="197" viewBox="0 0 643 197" fill="none" xmlns="http://www.w3.org/2000/svg">
<path d="M61.0263 142.842V65.2258L126.445 97.9849L89.3986 116.543V97.9849C89.3986 93.85 86.0623 90.5086 81.9337 90.5086C77.805 90.5086 74.4687 93.85 74.4687 97.9849V128.628C74.4687 131.231 75.8032 133.626 78.0135 134.99C80.2238 136.355 82.9485 136.48 85.27 135.324L146.477 104.681C149.007 103.415 150.606 100.839 150.606 97.9988C150.606 95.1587 149.007 92.583 146.477 91.3161L56.8976 46.4447C54.5761 45.2891 51.8376 45.4005 49.6412 46.7788C47.4309 48.1432 46.0964 50.5378 46.0964 53.1413V142.842C46.0964 146.977 49.4327 150.319 53.5613 150.319C57.69 150.319 61.0263 146.977 61.0263 142.842Z" fill="#FF002A"/>
<path d="M248.081 81.668C247.233 79.6771 245.843 77.9925 244.077 76.7952C243.201 76.1965 242.215 75.7232 241.172 75.403C240.129 75.0828 239.017 74.9018 237.877 74.9018H207.448C206.238 74.9018 205.043 75.3891 204.181 76.2522C203.319 77.1154 202.832 78.2988 202.832 79.524V116.46C202.832 119.008 204.89 121.082 207.448 121.082C210.005 121.082 212.063 119.021 212.063 116.46V105.684H237.877C239.393 105.684 240.866 105.378 242.187 104.807C244.175 103.958 245.857 102.565 247.052 100.797C247.65 99.9201 248.123 98.9316 248.442 97.8874C248.762 96.8433 248.943 95.7295 248.943 94.5879V85.97C248.943 84.4524 248.637 82.9767 248.067 81.6541L248.081 81.668ZM239.726 94.6018C239.726 94.8663 239.671 95.103 239.587 95.3257C239.448 95.6459 239.212 95.9383 238.92 96.1471C238.767 96.2446 238.614 96.3281 238.447 96.3838C238.28 96.4395 238.1 96.4674 237.891 96.4674H212.077V84.1601H237.891C238.155 84.1601 238.392 84.2158 238.614 84.2993C238.934 84.4385 239.226 84.6752 239.434 84.9676C239.532 85.1207 239.615 85.2738 239.671 85.4409C239.726 85.608 239.754 85.789 239.754 85.9978V94.6157L239.726 94.6018Z" fill="white"/>
<path d="M468.735 95.27C467.859 94.6714 466.872 94.198 465.829 93.8778C464.787 93.5576 463.675 93.3766 462.535 93.3766H435.483C435.219 93.3766 434.982 93.3209 434.76 93.2374C434.44 93.0982 434.148 92.8615 433.94 92.5691C433.843 92.416 433.759 92.2628 433.704 92.0958C433.648 91.9287 433.62 91.7477 433.62 91.5389V85.9978C433.62 85.7333 433.676 85.4966 433.759 85.2739C433.898 84.9536 434.134 84.6613 434.426 84.4524C434.579 84.355 434.732 84.2715 434.899 84.2158C435.066 84.1601 435.247 84.1322 435.455 84.1322H467.414C469.958 84.1322 472.029 82.0717 472.029 79.51C472.029 76.9483 469.972 74.8879 467.414 74.8879H435.455C433.94 74.8879 432.466 75.1941 431.146 75.7649C429.158 76.6142 427.476 78.0064 426.28 79.7746C425.683 80.6517 425.21 81.6401 424.89 82.6843C424.57 83.7285 424.39 84.8423 424.39 85.9839V91.5249C424.39 93.0425 424.696 94.5182 425.266 95.8408C426.114 97.8317 427.504 99.5163 429.269 100.714C430.145 101.312 431.132 101.786 432.174 102.106C433.217 102.426 434.329 102.607 435.469 102.607H462.521C462.785 102.607 463.021 102.663 463.244 102.746C463.563 102.886 463.855 103.122 464.064 103.415C464.161 103.568 464.244 103.721 464.3 103.888C464.356 104.055 464.383 104.236 464.383 104.445V109.986C464.383 110.25 464.328 110.487 464.244 110.71C464.105 111.03 463.869 111.322 463.577 111.531C463.424 111.629 463.271 111.712 463.105 111.768C462.938 111.824 462.757 111.851 462.548 111.851H430.59C428.046 111.851 425.974 113.912 425.974 116.474C425.974 119.035 428.032 121.096 430.59 121.096H462.548C464.064 121.096 465.537 120.79 466.858 120.219C468.846 119.369 470.528 117.977 471.723 116.209C472.321 115.332 472.794 114.344 473.113 113.299C473.433 112.255 473.614 111.141 473.614 110V104.459C473.614 102.941 473.308 101.465 472.738 100.143C471.89 98.1519 470.5 96.4674 468.735 95.27Z" fill="white"/>
<path d="M413.338 76.0434C411.42 74.3588 408.515 74.5537 406.833 76.475L388.789 97.1217L370.745 76.475C369.063 74.5537 366.158 74.3588 364.239 76.0434C362.321 77.728 362.126 80.6377 363.808 82.559L384.187 105.879V116.46C384.187 119.008 386.245 121.082 388.803 121.082C391.36 121.082 393.418 119.021 393.418 116.46V105.879L413.797 82.559C415.479 80.6377 415.284 77.728 413.366 76.0434H413.338Z" fill="white"/>
<path d="M534.07 81.668C533.222 79.6771 531.832 77.9925 530.067 76.7952C529.191 76.1965 528.204 75.7232 527.161 75.403C526.119 75.0828 525.007 74.9018 523.867 74.9018H496.815C495.3 74.9018 493.826 75.2081 492.506 75.7789C490.518 76.6281 488.836 78.0204 487.64 79.7885C487.042 80.6656 486.57 81.6541 486.25 82.6982C485.93 83.7424 485.75 84.8562 485.75 85.9978V110.014C485.75 111.531 486.055 113.007 486.625 114.33C487.473 116.321 488.864 118.005 490.629 119.202C491.505 119.801 492.492 120.274 493.534 120.595C494.577 120.915 495.689 121.096 496.829 121.096H523.881C525.396 121.096 526.869 120.79 528.19 120.219C530.178 119.369 531.86 117.977 533.055 116.209C533.653 115.332 534.126 114.344 534.446 113.299C534.765 112.255 534.946 111.141 534.946 110V85.9839C534.946 84.4664 534.64 82.9906 534.07 81.668ZM525.716 109.986C525.716 110.25 525.66 110.487 525.577 110.71C525.438 111.03 525.201 111.322 524.909 111.531C524.756 111.629 524.603 111.712 524.437 111.768C524.27 111.824 524.089 111.851 523.881 111.851H496.829C496.565 111.851 496.328 111.796 496.106 111.712C495.786 111.573 495.494 111.336 495.286 111.044C495.189 110.891 495.105 110.738 495.05 110.571C494.994 110.404 494.966 110.223 494.966 110.014V85.9978C494.966 85.7333 495.022 85.4966 495.105 85.2739C495.244 84.9536 495.48 84.6613 495.772 84.4524C495.925 84.355 496.078 84.2715 496.245 84.2158C496.412 84.1601 496.593 84.1322 496.801 84.1322H523.853C524.117 84.1322 524.353 84.1879 524.576 84.2714C524.895 84.4107 525.187 84.6474 525.396 84.9397C525.493 85.0929 525.577 85.246 525.632 85.4131C525.688 85.5801 525.716 85.7611 525.716 85.97V109.986Z" fill="white"/>
<path d="M592.288 74.9018C589.745 74.9018 587.673 76.9623 587.673 79.524V105.921L555.45 76.1408C554.102 74.8878 552.156 74.5676 550.474 75.3055C548.792 76.0434 547.707 77.7001 547.707 79.5379V116.474C547.707 119.021 549.765 121.096 552.322 121.096C554.88 121.096 556.938 119.035 556.938 116.474V90.077L589.161 119.857C590.509 121.11 592.455 121.43 594.137 120.692C595.819 119.954 596.904 118.297 596.904 116.46V79.524C596.904 76.9762 594.846 74.9018 592.288 74.9018Z" fill="white"/>
<path d="M297.819 111.838H270.156V79.524C270.156 76.9762 268.099 74.9018 265.541 74.9018C262.983 74.9018 260.926 76.9623 260.926 79.524V116.46C260.926 117.671 261.412 118.868 262.274 119.718C263.136 120.581 264.317 121.068 265.541 121.068H297.805C300.349 121.068 302.421 119.007 302.421 116.446C302.421 113.884 300.363 111.824 297.805 111.824L297.819 111.838Z" fill="white"/>
<path d="M360.514 121.068C358.929 121.068 357.386 120.247 356.524 118.771L338.995 88.6709L321.465 118.771C320.186 120.971 317.364 121.722 315.154 120.428C312.958 119.147 312.207 116.32 313.5 114.107L335.019 77.1711C335.839 75.751 337.368 74.8739 338.995 74.8739C340.621 74.8739 342.15 75.751 342.97 77.1711L364.489 114.107C365.768 116.307 365.032 119.133 362.835 120.428C362.098 120.859 361.306 121.054 360.514 121.054V121.068Z" fill="white"/>
</svg>
